<?xml version="1.0" encoding="UTF-8"?><svg id="Layer_2" xmlns="http://www.w3.org/2000/svg" viewBox="0 0 269.24 182.74"><defs><style>.cls-1{fill:#8f2607;}.cls-2{fill:#386115;}.cls-3{fill:#1f0d07;}</style></defs><g id="Layer_1-2"><path class="cls-1" d="m224.45,89.01c-2.06,2.1-8.2,4.94-8.2,4.94-.62.17-4.72,2.11-5.34,2.28-.98.28-1.31.9-1.19,1.85,1.07,9.18-2.23,16.98-7.64,24.12-6.6,8.71-14.8,15.47-24.77,19.95-3.84,1.72-7.94,2.73-12.2,1.44-3.72-1.13-6.04-4.18-6.29-8.09-.31-5.01,1.85-9.16,4.64-13.04,8.03-11.18,18.78-19.03,30.99-25.07.58-.28,1.49-.43,1.56-1.01.09-.77-.86-1.01-1.44-1.35-1.87-1.08-3.94-1.5-6.06-1.76-3.57-.44-7.17-.32-10.76-.51-1.71-.09-3.3-.38-4.16-2.13-.91-1.85-.24-3.46.88-4.92,3.06-3.96,6.73-7.41,9.79-11.38,2.52-3.28,4.9-6.63,6.68-10.38.76-1.61,1.4-3.24,1.47-5.05.14-3.73-2.45-5.43-5.8-3.77-1.81.9-3.37,2.14-4.85,3.51-3.08,2.86-5.77,6.04-8.08,9.55-.52.79-.62,1.61-.66,2.51-.44,9.64-.35,19.32-1.8,28.89-.82,5.44-2.03,10.77-4.38,15.78-1.06,2.26-2.3,4.44-4.34,5.93-4.1,3.01-8.23,2.56-10.12-2.94-1.38-4.02-1.08-8.14-.37-12.23,1.81-10.34,5.73-19.93,10.89-28.97,2.2-3.85,3.68-7.64,3.35-12.12-.15-1.98.25-3.99.33-5.99.06-1.39.58-2.25,2.08-2.22,1.28.03,2.72-.88,3.77-.07,1.01.78.46,2.42.87,3.65.81-.19,1.05-.85,1.45-1.32,4.37-5.12,8.99-9.97,14.67-13.7,2.66-1.74,5.47-2.35,8.33-.77,2.91,1.61,3.97,4.47,4.04,7.6.12,5.14-2.04,9.64-4.6,13.9-3.99,6.66-9.12,12.42-14.62,17.87-.42.41-.83.83-1.24,1.25-.03.03,0,.11,0,.22,3.33-.13,6.66-.36,9.99-.37,5.88-.02,11.18,1.53,15.26,6.09.6.67,1.26.76,2.07.52,1.36-.4,13.29-4.86,18.2-10.36m-48.54,53.04c11.06-4.58,18.82-12.32,22.46-23.91.81-2.59.64-5.23-.31-7.81-.52-1.41-1.09-2.33-2.76-1.28-.84.53-1.83.79-2.73,1.22-8.71,4.17-16.54,9.48-22.35,17.36-1.79,2.43-3.36,4.99-3.81,8.06-.61,4.16,1.73,6.85,5.93,6.87,1.2,0,2.32-.36,3.57-.53Zm-12.5-53.12c-.43.89-.89,1.76-1.28,2.67-2.16,5.04-3.83,10.24-5.07,15.58-.68,2.93-1.23,5.88-1.04,8.9.08,1.21.07,2.76,1.53,3.07,1.59.34,1.87-1.25,2.41-2.32.08-.16.14-.32.19-.49,2.73-8.89,4.15-17.96,3.26-27.41Z"/><path class="cls-1" d="m255.04,80.98c-1.3,3.16-2.37,6-3.63,8.76-2.79,6.1-6.64,11.39-12.99,14.09-7.09,3.01-12.35-.43-13.83-7.53-1.09-5.22.13-10.19,2.26-14.96,4.73-10.56,12.32-18.4,22.65-23.6.78-.39,1.63-.67,2.47-.93,2.36-.73,3.19-.23,3.86,2.18.36,1.27-.72,1.36-1.36,1.65-2.85,1.31-5.59,2.78-8.08,4.68-5.67,4.31-9.87,9.75-12.3,16.47-.96,2.66-1.19,5.39-.23,8.14,1.49,4.3,6.06,5.56,9.45,2.56,2.6-2.31,4.3-5.3,5.93-8.3,2.71-4.97,5.29-10.01,6.79-15.51.25-.91.64-1.26,1.63-1.01,4.18,1.07,3.63.38,3.32,4.37-.58,7.52-.92,15.04-.62,22.58.02.58-.15,1.28.42,1.63.64.4,1.08-.28,1.54-.57,1.5-.93,2.93-1.98,4.45-2.88.54-.32,1.18-1.37,1.9-.29.62.92.98,1.93-.18,2.8-1.84,1.37-3.6,2.87-5.53,4.1-1.66,1.05-2.09,2.26-1.91,4.23.78,8.52,1.09,17.05-.93,25.48-1.47,6.13-4.13,11.56-9.62,15.11-3.06,1.98-6.38,3.41-10.16,2.69-4.19-.8-7.24-4.33-8.17-8.76-1.75-8.32,1.28-15.27,5.96-21.78,4.1-5.71,9.26-10.35,15.03-14.3,1.32-.9,1.8-1.85,1.73-3.48-.23-5.75-.06-11.51.16-17.64Zm-14.94,50.11c1.22,4.37,5.41,5.69,8.95,2.83,1.7-1.37,2.8-3.16,3.65-5.13,3.15-7.27,2.84-14.94,2.59-22.6-.04-1.19-.61-1.06-1.32-.42-5.63,5.05-10.39,10.75-13.18,17.89-.93,2.39-1.42,4.86-.69,7.43Z"/><path class="cls-3" d="m137.97,105.98c-.61-6.42-1.22-12.58-1.79-18.75-.42-4.47-.81-8.95-1.22-13.42-.57-6.28-1.14-12.56-1.69-18.84-.15-1.72-.28-3.45-.4-5.18-.03-.35-.09-.62-.49-.73-3.21-.92-5.34-3.19-6.91-5.94-4.37-7.65-5.5-15.81-3.29-24.37.63-2.44,1.73-4.67,3.52-6.5,2.63-2.69,6.31-2.98,9.37-.79,2.48,1.77,4.19,4.15,5.44,6.86,3.06,6.67,3.99,13.62,2.44,20.83-.65,3.03-1.83,5.84-4.09,8.07-.33.32-.66.68-1.07.87-.8.38-.86.94-.74,1.72,1.12,6.95,2.22,13.9,3.32,20.84.75,4.73,1.49,9.46,2.27,14.19.89,5.37,1.74,10.74,2.53,16.12.34,2.3.74,4.59,1.14,6.89.11.64-.09,1.05-.57,1.47-2.09,1.84-4.32,2.06-6.74.72-.4-.22-.6-.45-.64-.92-.1-1.13-.27-2.26-.38-3.14Z"/><path class="cls-3" d="m123.1,110.39c1.14,3.32,2.32,6.75,3.5,10.19.38,1.1.23,1.75-.73,2.4-1.46.99-3.05,1.65-4.88,1.38-.77-.11-1.27-.51-1.51-1.28-1.73-5.5-3.47-11-5.2-16.5-.7-2.22-1.42-4.43-2.12-6.65-1.49-4.72-3.02-9.44-4.25-14.24-.38-1.49-.98-2.16-2.45-2.24-.67-.04-1.3-.34-1.93-.59-1.6-.63-2.56-1.79-3.13-3.4-1.78-5.09-3.5-10.19-4.94-15.39-1.78-6.4-3.27-12.86-3.66-19.51-.2-3.34-.13-6.67.99-9.88.38-1.08.86-2.11,1.56-3.02.16-.21.3-.52.61-.47.31.05.34.39.43.64,1.3,3.73,2.54,7.49,3.91,11.2,2.35,6.35,4.42,12.8,6.76,19.15,2.17,5.9,4.09,11.88,6.27,17.77,2.27,6.15,4.27,12.39,6.55,18.54,1.45,3.91,2.75,7.87,4.23,11.9Z"/><path class="cls-3" d="m112.53,16.64c-1.28-5.11-2.56-10.23-3.81-15.35-.11-.43-.52-1.12.06-1.27.52-.14.59.65.73,1.08,1.49,4.46,2.81,8.98,4.1,13.5,1.36,4.76,2.85,9.49,4.29,14.23.44,1.44.76,2.9.93,4.38.26,2.17-.68,3.84-2.02,4.97-1.39,1.16-1.48,2.27-.92,4.14,1.88,6.3,3.57,12.66,5.33,19,1.47,5.28,2.95,10.57,4.45,15.85,2.31,8.16,4.61,16.32,6.8,24.52.48,1.81,1.04,3.59,1.6,5.38.21.67.18,1.21-.3,1.65-.18.17-.34.37-.51.57-1.46,1.72-3.22,2.12-5.35,1.34-1.04-.38-1.65-.86-1.8-2.2-.16-1.41-.71-2.76-1.01-4.16-1.14-5.3-2.38-10.59-3.55-15.88-1.17-5.27-2.3-10.54-3.45-15.81-1.47-6.79-2.95-13.59-4.41-20.38-.77-3.57-1.51-7.13-2.25-10.71-.1-.47-.28-.7-.69-.82-.86-.24-1.71-.49-2.55-.84-2.02-.85-3.21-2.48-3.81-4.75-.94-3.53-1.55-7.13-2.29-10.7-.6-2.87-1.08-5.76-1.74-8.61-.92-3.99-1.61-8-2.27-12.03-.02-.09-.03-.19-.03-.28.02-.31-.18-.77.24-.85.42-.07.45.4.53.71.41,1.63.87,3.26,1.19,4.91.51,2.6,1.21,5.16,1.84,7.74.89,3.64,1.81,7.27,2.71,10.9.16.66.35,1.22,1.11,1.02.88-.23,1.06-.55.86-1.53-1.49-7.3-2.98-14.59-4.47-21.89-.14-.7-.32-1.4-.46-2.1-.05-.24-.1-.55.18-.61.28-.06.35.25.43.48.06.14.09.3.13.45,1.21,4.58,2.41,9.17,3.65,13.75.86,3.19,1.8,6.36,2.67,9.55.21.77.65.93,1.2.8.56-.14.82-.52.65-1.29-.92-4.04-1.79-8.1-2.7-12.14-.86-3.8-1.75-7.6-2.63-11.4,0-.03-.02-.06-.02-.09-.03-.34-.3-.86.12-.95.42-.1.44.48.53.81,1.94,6.58,3.86,13.16,5.79,19.74.34,1.17.73,2.32,1.02,3.5.24.94.77.95,1.41.84.72-.12.58-.67.48-1.26-.46-2.68-1.29-5.27-2-7.89Z"/><path class="cls-1" d="m151.43,73.93c1.17-1.06,2.77-2.46,3.09-4.11.25-1.34-.46-2.23-1.59-2.83-1.42-.75-3.16-.86-4.74-.93-2-.09-4.01.09-5.99.37-4.73.67-9.39,2.01-13.71,4.06-2.22,1.05-4.36,2.34-6.44,3.66-2.43,1.54-4.79,3.17-7.04,4.96-8.34,6.65-15.61,15.5-18.26,26.03-.6,2.37-.9,5.09-.14,7.46.88,2.74,3.21,4.42,6,4.85,3.43.53,7.14-.5,10.26-1.9,2.94-1.32,5.75-2.94,8.51-4.6,5.37-3.21,10.54-6.76,15.44-10.66,2.41-1.91,4.75-3.91,7.02-5.98,1.22-1.12,2.43-2.25,3.61-3.41,1.1-1.07,2.23-2.11,2.94-3.51,1.43-2.84-1.05-5.57-3.71-6.27-3.61-.95-7.56.04-11.1.86-6.13,1.43-12.1,3.77-17.57,6.89-2.67,1.52-5.25,3.23-7.67,5.11-1.27.99-2.51,2.01-3.66,3.13-.99.96-2.01,2.19-2.26,3.59s.25,2.8,1.39,3.73c1.38,1.13,3.2,1.47,4.94,1.45,3.27-.04,6.36-1.4,9.49-2.2,10.16-2.6,21.88-3.75,29.46-11.84,2.16-2.31,4.09-4.9,5.9-7.49s3.38-5.15,4.84-7.85c2.5-4.62,4.5-9.52,5.89-14.58,2.14-7.81,2.77-15.93,2.35-24-.07-1.43-.18-2.86-.3-4.28l-6.42,2.11c.33.3.58.69.82,1.05l-.22-.34c.91,1.41,1.53,3,2.03,4.6.94,3.06,1.39,6.26,1.63,9.45.2,2.68.22,5.37.15,8.05-.01.47.98.68,1.23.72.77.12,1.72-.01,2.46-.22,1.09-.31,2.91-.91,2.95-2.27.15-5.32-.05-10.76-1.34-15.95-.6-2.38-1.44-4.73-2.85-6.75-.19-.28-.4-.56-.65-.79-.41-.38-1.24-.44-1.75-.42-.74.03-1.46.17-2.16.4-.9.29-2.61.94-2.52,2.13.36,4.35.54,8.7.32,13.06l.02-.4c-.25,4.85-.98,9.67-2.23,14.37-1.52,5.69-3.8,11.17-6.71,16.29-.11.2-.22.39-.34.59,0,0-.16.27-.07.13s-.08.13-.07.13c-.22.37-.44.73-.66,1.1-.44.71-.89,1.42-1.35,2.12-.98,1.49-2.02,2.94-3.09,4.36s-2.3,2.95-3.53,4.36c-.21.24-.43.48-.65.71-.13.13-.26.26-.4.4-.18.19.16-.14.16-.14-.08.07-.16.14-.23.21-.49.44-1,.86-1.53,1.25-.25.19-.51.37-.77.55-.09.06-.56.37-.15.11s-.19.11-.3.18c-.57.34-1.15.66-1.74.95-.14.07-.29.14-.43.21-.49.24.67-.3.17-.08-.34.15-.69.31-1.04.45-.63.26-1.26.5-1.9.73-.16.05-.31.11-.47.16-.08.03-.16.05-.23.08s.83-.27.48-.16-.68.22-1.03.32c-.69.21-1.39.41-2.09.59-1.39.37-2.79.7-4.2,1.02-2.8.64-5.62,1.22-8.41,1.94-1.4.36-2.78.79-4.17,1.22-.41.13-.83.24-1.25.35-.62.17.69-.1.06,0-.1.02-.21.03-.32.05-.41.09.61-.01.2-.01-.1,0-.75.01-.38.02s-.2-.04-.3-.05c-.25-.02.18.04.2.05-.04-.04-.18-.05-.23-.07-.21-.07-.41-.15-.6-.24-.07-.03-.15-.07-.22-.11.04.02.23.16.08.03-.12-.1-.26-.18-.38-.29-.26-.22-.48-.47-.68-.75l.22.34c-.36-.57-.52-1.17-.49-1.85l-.02.4c.03-.35.1-.68.23-1.01.05-.14.12-.27.18-.4.14-.29-.25.34.07-.13.19-.28.39-.55.62-.81.1-.12.21-.23.32-.35.08-.08.62-.69.22-.23.42-.49,1.02-.9,1.52-1.31.57-.47,1.15-.93,1.73-1.39,1.15-.88,2.33-1.72,3.54-2.52.15-.1.51-.39-.05.03.15-.11.33-.21.49-.31.27-.17.55-.34.82-.51.66-.4,1.33-.79,2.01-1.16.62-.34,1.25-.67,1.88-.99.29-.15.58-.29.86-.43.17-.08.35-.17.52-.25.63-.31-.7.32-.06.03,1.35-.61,2.71-1.19,4.1-1.7.6-.22,1.21-.44,1.82-.64.69-.23-.83.26-.14.05.18-.06.37-.12.55-.17.37-.11.74-.23,1.11-.33,1.36-.39,2.74-.7,4.12-1.03-1.07.25-.38.08-.14.03.25-.05.51-.1.76-.14.39-.07.77-.14,1.16-.2.18-.03,1.09-.03,1.22-.16l-.42.04c.14,0,.27-.02.41-.02.16,0,.46-.07.61,0l-.33-.02c.13,0,.27.02.4.04.12.01.9.21.39.05.34.11.68.22.99.39-.36-.19.1.08.15.11.14.1.27.2.39.31.29.26.54.55.76.88l-.22-.34c.38.61.59,1.26.56,1.98l.02-.4c-.04.41-.13.8-.3,1.17-.04.08-.08.16-.12.24-.14.26.15-.21-.03.03-.14.19-.28.39-.43.57-.57.68-1.23,1.29-1.86,1.91-.34.33-.68.66-1.02.99-.17.16-.34.33-.51.49.02-.02.27-.26.08-.07-.12.12-.25.23-.37.35-.69.64-1.39,1.28-2.1,1.91-2.9,2.59-5.91,5.05-9.02,7.38-1.54,1.15-3.11,2.28-4.7,3.36-.78.53-1.57,1.06-2.36,1.58-.11.07-.23.15-.34.22-.06.04-.35.23-.03.02s.03-.02-.03.02c-.11.07-.23.15-.34.22-.43.27-.86.54-1.29.81-1.64,1.02-3.29,2-4.97,2.94-.82.46-1.65.92-2.49,1.37-.38.21-.77.41-1.16.61-.19.09-.37.18-.56.27-.31.16.39-.18.35-.16-.12.08-.28.13-.41.18-.44.19-.89.37-1.35.54-.71.25.73-.22.01,0-.23.07-.46.13-.69.19-.09.02-.17.04-.26.06-.64.16.68-.12.29-.06-.23.03-.46.07-.68.1-.33.05.43-.06.41-.03-.03.04-.36.02-.42.02-.08,0-.17,0-.25,0-.58.02.48.05.15.01-.22-.02-.43-.04-.65-.08-.06,0-.19-.06-.24-.04.3.08.37.09.2.05-.05-.01-.1-.03-.16-.04-.21-.06-.41-.14-.61-.22-.08-.03-.15-.07-.22-.1-.46-.2.16.12-.08-.03-.75-.49-1.36-1.07-1.85-1.82l.22.34c-.96-1.55-1.19-3.37-1.12-5.16l-.02.4c.14-2.65.95-5.24,1.91-7.7.48-1.24,1.02-2.45,1.62-3.63.28-.56.58-1.12.89-1.68.08-.15.17-.3.26-.45.03-.05.18-.31.02-.03.21-.35.42-.69.63-1.03,1.42-2.25,3.04-4.38,4.8-6.38.89-1.01,1.82-1.98,2.77-2.92.25-.25.5-.5.76-.73-.47.42.22-.2.33-.3.52-.48,1.05-.94,1.59-1.4,2.06-1.77,4.23-3.41,6.49-4.92.29-.2.59-.39.89-.59.17-.11.67-.32-.02.01.13-.06.25-.16.37-.24.6-.38,1.2-.75,1.81-1.11,1.17-.7,2.35-1.37,3.55-2,.18-.1.36-.19.55-.28.11-.06.22-.11.34-.16.49-.24-.8.36-.3.14.47-.21.95-.42,1.43-.61.45-.18.91-.35,1.37-.51.21-.07.43-.15.64-.22-1.33.45-.15.05.17-.04,1-.3,2.01-.57,3.04-.8.13-.03.26-.06.4-.09.49-.11-.54.11-.5.1.26-.04.53-.11.79-.15.52-.1,1.03-.18,1.55-.26s1.09-.15,1.63-.2c.25-.03.78-.06-.34.03.12,0,.24-.02.36-.03.27-.02.55-.04.82-.05.48-.02.96-.03,1.44-.02.27,0,1.08.09,0-.01.23.02.45.03.68.05.38.04.76.11,1.14.17.36.06-.58-.16-.32-.08.09.03.18.05.26.07.16.05.32.1.48.16.12.05.24.12.36.16.27.11-.43-.29-.21-.12.06.05.13.09.2.13.19.14.35.3.48.5l-.22-.34c.16.27.24.56.23.88l.02-.4c-.01.24-.07.48-.16.71-.05.12-.11.24-.16.36-.21.44.26-.36-.04.07-.22.3-.44.6-.69.88-.15.17-.31.34-.47.5-.07.07-.15.14-.22.22-.13.12-.06.06.21-.2-.07.06-.13.12-.2.18-.31.28-.85.73-.71,1.24.13.48.83.67,1.23.72.81.1,1.67,0,2.46-.22s1.64-.5,2.24-1.03h0Z"/><polygon class="cls-3" points="107.47 84.55 113.2 103.09 119.75 100.93 112.32 79.96 107.47 84.55"/><polygon class="cls-3" points="118.91 76.27 124.2 99.58 130.52 98.18 130.37 93.94 124.2 71.96 118.91 76.27"/><polygon class="cls-3" points="134.28 66.34 136.81 93.94 142.93 89.52 139.67 66.34 134.28 66.34"/><path class="cls-2" d="m22.82,140.32l-.04,1.47-2.07.07c-.3,1.75-.78,3.17-1.45,4.25-.66,1.08-1.77,2.24-3.33,3.5-1.55,1.25-3.41,2.3-5.58,3.14-2.17.84-3.98,1.26-5.43,1.26s-2.56-.29-3.31-.88c-.75-.59-1.13-1.36-1.13-2.31,0-1.45.86-2.91,2.57-4.38,1.72-1.47,3.8-2.69,6.24-3.68,2.44-.99,4.87-1.66,7.27-2.01-.38-.63-.95-1.14-1.71-1.54-.76-.4-2.06-.85-3.89-1.35-1-.28-1.5-.73-1.5-1.35,0-.38.16-.72.47-1.03.31-.31.84-.69,1.58-1.13.74-.44,1.44-.89,2.1-1.35.66-.46,1.4-1.02,2.22-1.67.81-.65,1.5-1.33,2.05-2.03.55-.7.83-1.32.83-1.84,0-.88-.44-1.32-1.32-1.32-.68,0-1.6.32-2.76.96s-2.31,1.46-3.44,2.46l-1.62,5.11c-1.13,3.58-2.37,6.37-3.74,8.34-1.37,1.98-2.66,2.97-3.89,2.97-1.3,0-1.95-.8-1.95-2.41s.78-3.65,2.33-6.15c1.55-2.49,3.71-5.06,6.47-7.69,0-.02.07-.26.21-.7.14-.44.27-.88.4-1.33.43-1.35.75-2.22.98-2.59l1.84.3c0,.48-.1,1.04-.3,1.69,1.4-1.05,2.89-1.97,4.45-2.76,1.57-.79,2.72-1.18,3.46-1.18s1.33.23,1.79.7c.45.46.68,1.14.68,2.03s-.42,1.91-1.26,3.06c-.84,1.15-1.89,2.19-3.14,3.12-2.28,1.7-4.22,2.93-5.83,3.68,2.61.4,4.51.93,5.71,1.6,1.2.66,2.08,1.66,2.63,2.99h2.41Zm-18.27.86c1.75-2.83,2.92-5.74,3.5-8.72-1.35,1.48-2.58,3.17-3.68,5.07-1.1,1.9-1.65,3.28-1.65,4.13,0,.53.18.79.55.79s.8-.43,1.3-1.28Zm8.72,8.04c1.23-.83,2.21-1.75,2.93-2.78.73-1.03,1.09-1.99,1.09-2.89,0-.43-.06-.85-.19-1.28-3.76.45-6.85,1.43-9.28,2.95-2.43,1.52-3.65,2.96-3.65,4.34,0,.6.24,1.08.71,1.45.48.36,1.13.55,1.95.55,2.03,0,4.17-.78,6.43-2.33Z"/><path class="cls-2" d="m39.39,142.99l.79.64c-.43,1.05-1.1,1.94-2.01,2.67-.92.73-1.74,1.09-2.48,1.09s-1.32-.26-1.75-.77c-.43-.51-.64-1.18-.64-2.01s.14-1.89.41-3.19c-1.18,1.85-2.44,3.31-3.8,4.36-1.35,1.05-2.49,1.58-3.42,1.58-1.4,0-2.11-1-2.11-3.01,0-1.7.58-3.88,1.73-6.54,1.15-2.66,1.99-4.2,2.52-4.62l1.8.79c-1.03,1.65-1.8,3.28-2.33,4.89s-.79,2.68-.79,3.21.17.97.51,1.3c.34.33.73.49,1.18.49,1,0,2.25-.92,3.74-2.76,1.49-1.84,3.01-4.59,4.57-8.25l1.92.86c-.05.2-.62,1.65-1.71,4.36-1.09,2.71-1.64,4.33-1.64,4.87s.12.95.36,1.22c.24.28.48.41.71.41s.42-.01.55-.04c.12-.02.25-.08.38-.15.12-.08.23-.14.32-.19.09-.05.19-.14.32-.26l.3-.26c.05-.07.14-.19.28-.36.14-.16.23-.27.28-.32Z"/><path class="cls-2" d="m46.72,143.51l.79.64c-.85,1.33-1.59,2.29-2.2,2.88-.61.59-1.3.88-2.05.88s-1.37-.3-1.84-.9c-.48-.6-.71-1.35-.71-2.26,0-1.75,1.15-5.53,3.46-11.33,2.31-5.8,4.67-10.91,7.1-15.32l1.65.9c-2.46,4.76-4.67,9.49-6.65,14.19-1.98,4.7-2.97,8.08-2.97,10.13,0,1.18.44,1.77,1.32,1.77.7,0,1.4-.53,2.1-1.58Z"/><path class="cls-2" d="m67.25,145.77l.04.9c-.25.15-1.39.6-3.42,1.35-.8,4.79-1.98,8.24-3.53,10.37-1.55,2.13-3.46,3.2-5.71,3.2-1.05,0-1.89-.34-2.52-1.02-.63-.68-.94-1.55-.94-2.63,0-2.16.99-4.17,2.97-6.03,1.98-1.87,4.62-3.34,7.93-4.42.38-1.68,1.05-4.05,2.03-7.1-1.68,2.56-3.2,4.29-4.57,5.19-1.37.9-2.6,1.35-3.7,1.35s-1.94-.3-2.5-.9c-.56-.6-.85-1.4-.85-2.41,0-1.65.69-3.34,2.07-5.06,1.38-1.72,3.11-3.12,5.21-4.21,2.09-1.09,4.12-1.64,6.07-1.64l.3,1.32c-2.78.3-5.17,1.28-7.16,2.93-1.99,1.65-2.99,3.25-2.99,4.77,0,.65.2,1.19.6,1.62.4.43.89.64,1.47.64.85,0,2.14-.9,3.87-2.71,1.73-1.8,2.94-3.35,3.65-4.62l1.39.79c-1.38,3.68-2.33,6.79-2.86,9.32l3.16-1.01Zm-5.41,2.86c-2.18,1-3.98,2.21-5.41,3.61-1.43,1.4-2.14,2.68-2.14,3.83,0,.6.17,1.09.53,1.47.35.38.79.56,1.32.56,1.05,0,2.09-.74,3.12-2.22,1.03-1.48,1.89-3.9,2.59-7.26Z"/><path class="cls-2" d="m84.05,143.32l.86.64c-.35.75-1,1.47-1.94,2.14s-1.8,1.02-2.57,1.02c-1.48,0-2.22-.78-2.22-2.33,0-.73.19-1.59.56-2.59l-1.39,1.43c-1.35,1.38-2.53,2.31-3.51,2.78-.99.48-1.96.71-2.91.71s-1.67-.27-2.16-.81c-.49-.54-.73-1.28-.73-2.24,0-1.75.68-3.49,2.03-5.21,1.35-1.72,3.08-3.11,5.19-4.19,2.1-1.08,4.21-1.63,6.31-1.65l.08,1.24-1.58.34c-2.28.5-4.29,1.5-6.03,3.01-1.74,1.5-2.61,3-2.61,4.49s.6,2.24,1.8,2.24c1.13,0,2.52-.79,4.17-2.37,1.65-1.58,3.03-3.43,4.14-5.56l1.58.94c-1.55,3.13-2.33,5.13-2.33,5.98,0,.35.12.65.36.88.24.24.48.36.71.36s.4-.01.47-.04c.07-.02.15-.06.23-.09s.17-.09.28-.17c.11-.08.21-.15.3-.23.09-.07.23-.19.43-.34.2-.15.36-.28.49-.38Z"/><path class="cls-2" d="m96.08,133.81c.63,0,1.14.21,1.54.64.4.43.6.98.6,1.65,0,1.35-.78,2.78-2.33,4.29l-.9-.71c.35-.78.53-1.34.53-1.69,0-.68-.38-1.01-1.13-1.01s-1.47.48-2.14,1.43c-.68.95-1.47,2.42-2.39,4.42-.91,1.99-1.61,3.4-2.09,4.23l-2.14-.94c1.38-3.13,2.17-4.97,2.37-5.53.68-1.95,1.01-4.44,1.01-7.44l2.1-.56c-.07,1.63-.19,2.89-.34,3.78-.15.89-.51,2.34-1.09,4.34,2.53-4.59,4.66-6.88,6.39-6.88Z"/><path class="cls-2" d="m106.08,142.27l.75.64c-.6,1.15-1.4,2.14-2.39,2.95-.99.81-1.89,1.22-2.69,1.22-1.4,0-2.1-.98-2.1-2.93,0-2.43,1-5.6,3.01-9.51.45-.85.71-1.35.79-1.5l1.62.98c-.53.95-1.17,2.47-1.94,4.55-.76,2.08-1.15,3.41-1.15,4s.13,1.01.38,1.26c.25.25.55.38.9.38.68,0,1.62-.68,2.82-2.03Zm.49-11.09c-1.4,0-2.11-.56-2.11-1.69,0-.63.17-1.15.53-1.58.35-.43.8-.64,1.35-.64s1,.16,1.35.49c.35.33.53.75.53,1.28s-.15,1.02-.45,1.47c-.3.45-.7.68-1.2.68Z"/><path class="cls-2" d="m125.1,143.32l.86.64c-.35.75-1,1.47-1.94,2.14s-1.8,1.02-2.57,1.02c-1.48,0-2.22-.78-2.22-2.33,0-.73.19-1.59.56-2.59l-1.39,1.43c-1.35,1.38-2.53,2.31-3.51,2.78-.99.48-1.96.71-2.91.71s-1.67-.27-2.16-.81c-.49-.54-.73-1.28-.73-2.24,0-1.75.68-3.49,2.03-5.21,1.35-1.72,3.08-3.11,5.19-4.19,2.1-1.08,4.21-1.63,6.31-1.65l.08,1.24-1.58.34c-2.28.5-4.29,1.5-6.03,3.01-1.74,1.5-2.61,3-2.61,4.49s.6,2.24,1.8,2.24c1.13,0,2.52-.79,4.17-2.37,1.65-1.58,3.03-3.43,4.14-5.56l1.58.94c-1.55,3.13-2.33,5.13-2.33,5.98,0,.35.12.65.36.88.24.24.48.36.71.36s.4-.01.47-.04c.07-.02.15-.06.23-.09s.17-.09.28-.17c.11-.08.21-.15.3-.23.09-.07.23-.19.43-.34.2-.15.36-.28.49-.38Z"/><path class="cls-2" d="m142.35,142.57l.79.6c-.55,1.1-1.31,2.03-2.27,2.78-.96.75-1.84,1.13-2.61,1.13s-1.39-.23-1.84-.68c-.45-.45-.68-1.01-.68-1.69s.43-1.86,1.3-3.55c.86-1.69,1.3-2.94,1.3-3.74,0-.35-.14-.67-.43-.96-.29-.29-.63-.43-1.03-.43-1.28,0-2.57.97-3.87,2.91-1.3,1.94-2.76,4.74-4.36,8.4l-2.26-.79c.48-2.91,1.16-5.74,2.05-8.51.89-2.77,1.71-4.76,2.46-5.96l1.54.49c-.7,1.78-1.59,4.85-2.67,9.21,3.46-5.91,6.64-8.87,9.55-8.87.63,0,1.15.21,1.56.64.41.43.62.93.62,1.5s-.08,1.1-.23,1.56c-.15.46-.62,1.54-1.41,3.23-.79,1.69-1.18,2.75-1.18,3.18s.12.76.38,1c.25.24.49.36.71.36s.41-.04.56-.11c.15-.08.32-.19.51-.34.19-.15.36-.29.51-.41.15-.13.33-.29.54-.51.21-.21.37-.36.47-.43Z"/><path class="cls-3" d="m70.93,155.65h6.99c.35,0,.83.01,1.43.04.6.03,1.25.1,1.95.23.7.13,1.42.33,2.14.6.73.28,1.38.68,1.96,1.2.58.53,1.05,1.19,1.43,1.99.38.8.56,1.78.56,2.93,0,1.28-.22,2.33-.66,3.16s-.99,1.5-1.65,2.01c-.66.51-1.4.9-2.2,1.15-.8.25-1.57.43-2.29.53l7.74,12.78h-2.82l-7.48-12.63h-4.62v12.63h-2.48v-26.61Zm2.48,11.73h5.26c1.3,0,2.36-.16,3.18-.49.81-.33,1.45-.73,1.9-1.2.45-.48.76-.99.92-1.54.16-.55.24-1.05.24-1.5s-.08-.95-.24-1.5c-.16-.55-.47-1.07-.92-1.54-.45-.48-1.08-.88-1.9-1.2-.81-.33-1.87-.49-3.18-.49h-5.26v9.47Z"/><path class="cls-3" d="m92.13,163.64h11.39v1.58h-9.66v6.63h9.05v1.58h-9.05v7.26h10.08v1.58h-11.81v-18.63Z"/><path class="cls-3" d="m108.23,178.82c.46.79,1.05,1.38,1.78,1.76.73.39,1.56.58,2.49.58.58,0,1.12-.09,1.63-.26.51-.17.95-.42,1.33-.74.38-.32.68-.7.89-1.14.22-.45.33-.95.33-1.51,0-.65-.14-1.18-.41-1.61-.27-.42-.64-.77-1.09-1.04s-.97-.5-1.54-.7-1.16-.39-1.76-.58c-.61-.19-1.19-.41-1.76-.66-.57-.25-1.08-.57-1.54-.96-.46-.39-.82-.89-1.09-1.49s-.41-1.33-.41-2.21c0-.82.16-1.56.49-2.2.32-.64.76-1.18,1.32-1.61.55-.43,1.19-.75,1.91-.97.72-.22,1.47-.33,2.26-.33,1.02,0,1.96.18,2.83.54.87.36,1.62.96,2.25,1.8l-1.5,1.08c-.44-.61-.95-1.07-1.54-1.38s-1.29-.46-2.09-.46c-.56,0-1.1.07-1.6.22-.51.15-.95.37-1.33.66-.38.29-.68.65-.91,1.09-.23.44-.34.96-.34,1.55,0,.93.24,1.64.71,2.14.47.5,1.07.89,1.78,1.18s1.48.54,2.32.76c.83.22,1.61.51,2.32.88.71.37,1.3.88,1.78,1.54s.71,1.57.71,2.72c0,.84-.16,1.59-.47,2.24s-.74,1.2-1.28,1.64c-.54.45-1.15.79-1.86,1.01-.7.23-1.43.34-2.18.34-1.23,0-2.36-.22-3.39-.64-1.04-.43-1.92-1.15-2.66-2.17l1.66-1.11Z"/><path class="cls-3" d="m126.49,165.21h-6.37v-1.58h14.47v1.58h-6.37v17.05h-1.74v-17.05Z"/><path class="cls-3" d="m141.39,163.64h1.79l7.84,18.63h-1.95l-2.03-4.95h-9.87l-2.11,4.95h-1.82l8.13-18.63Zm.82,1.89l-4.34,10.21h8.55l-4.21-10.21Z"/><path class="cls-3" d="m166.94,175.13c0,1-.11,1.96-.34,2.87-.23.91-.61,1.72-1.14,2.42-.54.7-1.24,1.26-2.1,1.68-.87.42-1.93.63-3.2.63s-2.33-.21-3.2-.63c-.87-.42-1.57-.98-2.1-1.68-.54-.7-.92-1.51-1.14-2.42-.23-.91-.34-1.87-.34-2.87v-11.5h1.74v11.05c0,.67.06,1.38.18,2.13.12.75.36,1.46.72,2.1.36.65.87,1.18,1.53,1.61s1.53.63,2.62.63,1.96-.21,2.62-.63,1.17-.96,1.53-1.61c.36-.65.6-1.35.72-2.1.12-.75.18-1.46.18-2.13v-11.05h1.74v11.5Z"/><path class="cls-3" d="m171.7,163.64h4.89c.25,0,.58,0,1,.03.42.02.88.07,1.37.16.49.09.99.23,1.5.42.51.19.96.47,1.37.84.4.37.74.83,1,1.39.26.56.4,1.25.4,2.05,0,.89-.15,1.63-.46,2.21-.31.58-.69,1.05-1.16,1.41-.47.36-.98.63-1.54.8-.56.18-1.1.3-1.61.37l5.42,8.95h-1.97l-5.24-8.84h-3.24v8.84h-1.74v-18.63Zm1.74,8.21h3.68c.91,0,1.65-.11,2.22-.34.57-.23,1.01-.51,1.33-.84.32-.33.53-.69.64-1.08.11-.39.17-.74.17-1.05s-.06-.67-.17-1.05c-.11-.39-.33-.75-.64-1.08-.32-.33-.76-.61-1.33-.84-.57-.23-1.31-.34-2.22-.34h-3.68v6.63Z"/><path class="cls-3" d="m193.01,163.64h1.79l7.84,18.63h-1.95l-2.03-4.95h-9.87l-2.11,4.95h-1.82l8.13-18.63Zm.82,1.89l-4.34,10.21h8.55l-4.21-10.21Z"/><path class="cls-3" d="m205.33,163.64h2.24l11.34,16.31h.05v-16.31h1.74v18.63h-2.24l-11.34-16.31h-.05v16.31h-1.74v-18.63Z"/><path class="cls-3" d="m229.93,165.21h-6.37v-1.58h14.47v1.58h-6.37v17.05h-1.74v-17.05Z"/><path class="cls-3" d="m241.4,178.82c.46.79,1.05,1.38,1.78,1.76.73.39,1.56.58,2.49.58.58,0,1.12-.09,1.63-.26.51-.17.95-.42,1.33-.74.38-.32.68-.7.89-1.14.22-.45.33-.95.33-1.51,0-.65-.14-1.18-.41-1.61-.27-.42-.64-.77-1.09-1.04s-.97-.5-1.54-.7-1.16-.39-1.76-.58c-.61-.19-1.19-.41-1.76-.66-.57-.25-1.08-.57-1.54-.96-.46-.39-.82-.89-1.09-1.49s-.41-1.33-.41-2.21c0-.82.16-1.56.49-2.2.32-.64.76-1.18,1.32-1.61.55-.43,1.19-.75,1.91-.97.72-.22,1.47-.33,2.26-.33,1.02,0,1.96.18,2.83.54.87.36,1.62.96,2.25,1.8l-1.5,1.08c-.44-.61-.95-1.07-1.54-1.38s-1.29-.46-2.09-.46c-.56,0-1.1.07-1.6.22-.51.15-.95.37-1.33.66-.38.29-.68.65-.91,1.09-.23.44-.34.96-.34,1.55,0,.93.24,1.64.71,2.14.47.5,1.07.89,1.78,1.18s1.48.54,2.32.76c.83.22,1.61.51,2.32.88.71.37,1.3.88,1.78,1.54s.71,1.57.71,2.72c0,.84-.16,1.59-.47,2.24s-.74,1.2-1.28,1.64c-.54.45-1.15.79-1.86,1.01-.7.23-1.43.34-2.18.34-1.23,0-2.36-.22-3.39-.64-1.04-.43-1.92-1.15-2.66-2.17l1.66-1.11Z"/></g></svg>