<?xml version="1.0" standalone="no"?>
<!DOCTYPE svg PUBLIC "-//W3C//DTD SVG 20010904//EN"
 "http://www.w3.org/TR/2001/REC-SVG-20010904/DTD/svg10.dtd">
<svg version="1.0" xmlns="http://www.w3.org/2000/svg"
 width="5000.000000pt" height="5000.000000pt" viewBox="0 0 5000.000000 5000.000000"
 preserveAspectRatio="xMidYMid meet">

<g transform="translate(0.000000,5000.000000) scale(0.100000,-0.100000)"
fill="#000000" stroke="none">
<path d="M16775 39989 c-651 -24 -1326 -73 -1665 -120 -597 -83 -1361 -326
-1886 -599 -1075 -559 -1913 -1395 -2486 -2480 -221 -417 -423 -997 -543
-1555 -84 -394 -126 -838 -177 -1870 -19 -379 -19 -16424 0 -16785 61 -1184
103 -1555 236 -2071 188 -730 433 -1288 817 -1860 554 -824 1293 -1478 2184
-1934 576 -294 1355 -527 2005 -599 334 -37 513 -51 1330 -98 285 -16 16095
-24 16565 -8 702 24 1371 70 1735 121 355 49 846 176 1250 322 1502 543 2755
1760 3346 3248 151 383 300 912 363 1294 35 207 74 615 101 1040 45 721 43
262 49 8520 4 4268 3 7963 -1 8210 -17 1026 -82 1926 -173 2381 -116 583 -318
1174 -555 1630 -501 962 -1243 1755 -2160 2306 -473 285 -949 483 -1525 638
-512 137 -790 175 -1705 235 -612 41 -246 39 -8790 41 -4458 0 -8199 -2 -8315
-7z m12675 -5219 c1240 -76 2351 -517 3315 -1316 168 -139 560 -532 697 -699
720 -874 1148 -1866 1278 -2961 41 -347 41 -406 38 -4934 -4 -4032 -5 -4367
-21 -4510 -55 -495 -128 -841 -266 -1260 -91 -274 -172 -469 -307 -740 -285
-570 -606 -1013 -1063 -1471 -444 -443 -891 -769 -1431 -1043 -725 -368 -1453
-562 -2275 -606 -300 -17 -8858 -8 -9015 8 -365 39 -603 79 -898 153 -844 209
-1611 603 -2292 1177 -161 136 -506 481 -642 642 -738 875 -1190 1920 -1312
3035 -36 329 -37 455 -34 4890 4 4724 0 4403 53 4780 149 1059 588 2037 1285
2865 138 164 471 499 635 640 936 800 2102 1273 3330 1349 197 12 8726 13
8925 1z"/>
<path d="M20470 32909 c-282 -23 -627 -95 -905 -189 -1160 -396 -2051 -1332
-2390 -2513 -71 -248 -115 -506 -135 -782 -14 -195 -13 -8759 0 -8955 65 -913
441 -1741 1085 -2386 623 -625 1397 -991 2295 -1086 185 -19 8975 -19 9160 0
916 97 1716 483 2340 1128 585 606 936 1363 1032 2229 19 177 19 9012 0 9190
-54 486 -172 896 -378 1307 -590 1179 -1746 1955 -3063 2058 -164 12 -8880 12
-9041 -1z m9976 -1524 c486 -85 877 -476 965 -965 19 -106 17 -326 -4 -426
-99 -471 -449 -832 -906 -935 -696 -156 -1384 349 -1440 1059 -21 274 44 528
194 753 178 267 466 458 777 514 102 18 307 18 414 0z m-5156 -1365 c332 -21
604 -61 905 -135 794 -193 1498 -556 2125 -1094 156 -134 471 -457 601 -616
940 -1149 1330 -2615 1084 -4075 -151 -899 -549 -1746 -1153 -2455 -119 -139
-444 -461 -582 -576 -633 -527 -1344 -883 -2120 -1063 -1154 -266 -2369 -122
-3421 405 -487 243 -915 555 -1314 954 -202 201 -336 356 -495 570 -927 1244
-1227 2859 -814 4369 135 493 369 1006 658 1444 291 442 701 884 1131 1218
530 413 1163 726 1806 894 356 92 664 140 1064 163 124 8 374 6 525 -3z"/>
<path d="M24670 28219 c-654 -72 -1216 -304 -1740 -718 -132 -104 -398 -373
-504 -511 -321 -414 -540 -882 -640 -1370 -51 -248 -60 -355 -61 -660 0 -309
8 -400 56 -647 259 -1331 1329 -2372 2669 -2597 1432 -241 2841 475 3488 1771
157 314 255 629 313 1003 20 127 23 184 23 455 1 246 -3 336 -17 434 -90 626
-316 1151 -706 1641 -101 128 -361 386 -496 494 -388 309 -856 534 -1330 640
-242 55 -371 68 -680 71 -159 2 -328 -1 -375 -6z"/>
</g>
</svg>
